<svg width="195" height="195" xmlns="http://www.w3.org/2000/svg">
    <path d="M32.23 17.844a77.93 77.93 0 0 1 9.943-6.794c8.269-4.76 16.98-7.95 26.042-9.593.255-.046.503-.084.745-.114A84.498 84.498 0 0 1 84 0c46.392 0 84 37.608 84 84 0 21.036-7.733 40.267-20.511 55.004l22.626 22.626A17.434 17.434 0 0 1 177.5 160c9.665 0 17.5 7.835 17.5 17.5s-7.835 17.5-17.5 17.5-17.5-7.835-17.5-17.5c0-2.639.584-5.141 1.63-7.385l-22.626-22.626C124.267 160.267 105.036 168 84 168c-46.392 0-84-37.608-84-84 0-26.862 12.609-50.78 32.23-66.156zm-2.643 116.308C43.108 148.815 62.482 158 84 158c40.87 0 74-33.13 74-74s-33.13-74-74-74c-17.11 0-32.862 5.806-45.396 15.556a67.987 67.987 0 0 0-9.408 9.097c-5.163 6.056-9.079 12.665-11.792 19.791-2.754 7.234-4.183 14.552-4.345 21.953-.164 7.517.91 14.663 3.168 21.473 2.295 6.921 5.595 13.088 9.867 18.562 4.344 5.565 9.352 10.107 15.02 13.7 5.766 3.655 11.796 6.156 18.12 7.578 6.434 1.447 12.727 1.756 18.934.99 6.32-.782 12.133-2.549 17.519-5.266 5.486-2.767 10.184-6.26 14.186-10.475 4.08-4.296 7.202-8.984 9.46-14.1 2.304-5.22 3.609-10.467 3.995-15.822.393-5.469-.124-10.623-1.506-15.575-1.413-5.064-3.54-9.532-6.382-13.54-2.908-4.1-6.257-7.423-10.098-10.1-3.935-2.741-8.003-4.633-12.304-5.787-4.41-1.183-8.652-1.56-12.863-1.2-4.324.37-8.223 1.402-11.857 3.082-3.736 1.726-6.867 3.9-9.553 6.562-2.766 2.742-4.839 5.671-6.36 8.89-1.57 3.322-2.458 6.566-2.767 9.89-.319 3.436-.061 6.562.73 9.572.821 3.119 2.041 5.758 3.69 8.125 1.714 2.458 3.608 4.35 5.787 5.87 2.27 1.581 4.495 2.603 6.848 3.21 2.457.634 4.673.796 6.864.563.511-.054 1.003-.125 1.478-.21-5.103-2.537-8.61-7.804-8.61-13.889 0-8.56 6.94-15.5 15.5-15.5 8.53 0 15.45 6.89 15.5 15.408.007.195.01.4.012.619.017 2.795-.45 5.34-1.376 7.734-1.117 2.886-2.586 5.262-4.45 7.311-2.224 2.443-4.614 4.26-7.273 5.603-3.138 1.585-6.222 2.495-9.394 2.833-3.711.395-7.132.144-10.427-.706-3.827-.988-7.142-2.51-10.112-4.579-3.425-2.387-6.161-5.122-8.356-8.27-2.515-3.61-4.232-7.323-5.265-11.25-1.175-4.469-1.53-8.769-1.134-13.032.448-4.822 1.646-9.2 3.57-13.271 2.163-4.576 4.912-8.462 8.268-11.789 3.75-3.716 7.843-6.557 12.332-8.632 4.992-2.307 10.023-3.64 15.17-4.079 5.702-.487 11.108-.007 16.311 1.389 5.747 1.542 10.872 3.925 15.476 7.133 5.07 3.533 9.245 7.674 12.62 12.435 3.708 5.229 6.334 10.744 7.964 16.585 1.784 6.392 2.417 12.698 1.965 18.973-.492 6.84-2.077 13.212-4.708 19.174-2.858 6.475-6.622 12.126-11.263 17.014-5.023 5.29-10.652 9.474-16.867 12.61-6.71 3.384-13.632 5.489-20.76 6.37-7.682.949-15.132.582-22.356-1.042-7.777-1.75-14.876-4.693-21.32-8.778a72.03 72.03 0 0 1-6.465-4.61z" fill="#DD2E44"/>
</svg>
